<svg xmlns="http://www.w3.org/2000/svg" viewBox="0 0 1000 1000">
  <defs>
    <linearGradient id="bg-gradient" x1="0%" y1="0%" x2="0%" y2="100%">
      <stop offset="0%" style="stop-color:#4169E1;stop-opacity:1" />
      <stop offset="100%" style="stop-color:#8B00FF;stop-opacity:1" />
    </linearGradient>
  </defs>
  
  <rect width="1000" height="1000" fill="url(#bg-gradient)"/>
  
  <g id="molecular-structure">
    <circle cx="270" cy="150" r="80" fill="white" opacity="0.9">
      <animate attributeName="cx" values="270;275;270" dur="3s" repeatCount="indefinite"/>
    </circle>
    
    <circle cx="545" cy="240" r="70" fill="#FF4500" opacity="0.85">
      <animate attributeName="cy" values="240;245;240" dur="2.5s" repeatCount="indefinite"/>
    </circle>
    
    <circle cx="920" cy="180" r="95" fill="white" opacity="0.7">
      <animateTransform attributeName="transform" type="rotate" 
        values="0 920 180; 5 920 180; 0 920 180" dur="4s" repeatCount="indefinite"/>
    </circle>
    
    <circle cx="500" cy="540" r="130" fill="#FF1493" opacity="0.9">
      <animate attributeName="r" values="130;135;130" dur="3s" repeatCount="indefinite"/>
    </circle>
    
    <circle cx="230" cy="420" r="50" fill="white" opacity="0.8">
      <animate attributeName="opacity" values="0.8;0.95;0.8" dur="2s" repeatCount="indefinite"/>
    </circle>
    
    <circle cx="560" cy="800" r="60" fill="white" opacity="0.75">
      <animate attributeName="cx" values="560;565;560" dur="3.5s" repeatCount="indefinite"/>
    </circle>
    
    <circle cx="920" cy="930" r="90" fill="white" opacity="0.85">
      <animate attributeName="cy" values="930;935;930" dur="3s" repeatCount="indefinite"/>
    </circle>
    
    <line x1="270" y1="150" x2="500" y2="540" stroke="white" stroke-width="25" opacity="0.6"/>
    <line x1="500" y1="540" x2="230" y2="800" stroke="white" stroke-width="30" opacity="0.7"/>
    <line x1="500" y1="540" x2="560" y2="800" stroke="#FF1493" stroke-width="35" opacity="0.75"/>
    <line x1="500" y1="540" x2="920" y2="930" stroke="white" stroke-width="28" opacity="0.65"/>
    <line x1="500" y1="540" x2="545" y2="240" stroke="white" stroke-width="22" opacity="0.6"/>
    <line x1="500" y1="540" x2="920" y2="180" stroke="#00CED1" stroke-width="26" opacity="0.7"/>
    
    <g id="splatter-1" transform="translate(270, 150)">
      <circle cx="0" cy="0" r="82" fill="#FF6347" opacity="0.3"/>
      <circle cx="35" cy="-25" r="15" fill="#FFA500" opacity="0.5"/>
      <circle cx="-30" cy="20" r="12" fill="#32CD32" opacity="0.4"/>
      <circle cx="20" cy="30" r="8" fill="#00CED1" opacity="0.45"/>
    </g>
    
    <g id="splatter-2" transform="translate(545, 240)">
      <circle cx="0" cy="0" r="72" fill="#FF4500" opacity="0.4"/>
      <circle cx="-25" cy="-20" r="10" fill="white" opacity="0.6"/>
      <circle cx="28" cy="15" r="14" fill="#00CED1" opacity="0.5"/>
    </g>
    
    <g id="splatter-3" transform="translate(920, 180)">
      <circle cx="0" cy="0" r="97" fill="#9932CC" opacity="0.35"/>
      <circle cx="-40" cy="-30" r="18" fill="#FF1493" opacity="0.5"/>
      <circle cx="35" cy="25" r="16" fill="#00CED1" opacity="0.45"/>
      <circle cx="-20" cy="40" r="12" fill="#FFA500" opacity="0.5"/>
    </g>
    
    <g id="splatter-4" transform="translate(500, 540)">
      <circle cx="0" cy="0" r="133" fill="#FF1493" opacity="0.5"/>
      <circle cx="-50" cy="-35" r="22" fill="white" opacity="0.6"/>
      <circle cx="45" cy="30" r="20" fill="#00CED1" opacity="0.55"/>
      <circle cx="-30" cy="45" r="15" fill="#FFA500" opacity="0.5"/>
      <circle cx="35" cy="-40" r="18" fill="#32CD32" opacity="0.45"/>
    </g>
    
    <g id="splatter-5" transform="translate(230, 420)">
      <circle cx="0" cy="0" r="52" fill="white" opacity="0.4"/>
      <circle cx="18" cy="-15" r="8" fill="#FF6347" opacity="0.5"/>
    </g>
    
    <g id="splatter-6" transform="translate(560, 800)">
      <circle cx="0" cy="0" r="62" fill="white" opacity="0.4"/>
      <circle cx="-22" cy="18" r="10" fill="#32CD32" opacity="0.5"/>
      <circle cx="25" cy="-20" r="12" fill="#00CED1" opacity="0.45"/>
    </g>
    
    <g id="splatter-7" transform="translate(920, 930)">
      <circle cx="0" cy="0" r="92" fill="white" opacity="0.45"/>
      <circle cx="-35" cy="-25" r="15" fill="#FFD700" opacity="0.5"/>
      <circle cx="30" cy="28" r="18" fill="#32CD32" opacity="0.5"/>
      <circle cx="-20" cy="35" r="12" fill="#00CED1" opacity="0.45"/>
    </g>
    
    <circle cx="230" cy="800" r="65" fill="white" opacity="0.8">
      <animate attributeName="cy" values="800;805;800" dur="3.2s" repeatCount="indefinite"/>
    </circle>
    
    <g id="splatter-8" transform="translate(230, 800)">
      <circle cx="0" cy="0" r="67" fill="#00CED1" opacity="0.35"/>
      <circle cx="25" cy="-22" r="10" fill="white" opacity="0.55"/>
      <circle cx="-28" cy="20" r="14" fill="#FF1493" opacity="0.5"/>
    </g>
  </g>
</svg>
